<svg version="1.1" id="Layer_1" xmlns="http://www.w3.org/2000/svg" xmlns:xlink="http://www.w3.org/1999/xlink" x="0px" y="0px"
	 width="100%" viewBox="0 0 256 256" enable-background="new 0 0 256 256" xml:space="preserve">
<path fill="#000000" opacity="1.000000" stroke="none" 
	d="
M257.000000,90.000000 
	C257.000000,146.000000 257.000000,201.500000 257.000000,257.000000 
	C171.666672,257.000000 86.333336,257.000000 1.000000,257.000000 
	C1.000000,171.666672 1.000000,86.333336 1.000000,1.000000 
	C86.333336,1.000000 171.666672,1.000000 257.000000,1.000000 
	C257.000000,30.500000 257.000000,60.000000 257.000000,90.000000 
M27.075550,84.737953 
	C26.020168,87.260658 24.659563,89.702301 23.964212,92.320618 
	C21.453108,101.776077 17.585974,110.816338 18.784046,121.184029 
	C19.831381,130.247314 18.774693,139.535843 19.144072,148.704865 
	C19.277052,152.005783 20.958490,155.224228 21.741419,158.525818 
	C22.301105,160.886017 22.071068,163.529221 23.019995,165.681747 
	C25.090981,170.379517 27.546198,174.926880 30.104813,179.386307 
	C34.048122,186.259155 37.535595,193.551910 42.469246,199.653534 
	C47.370365,205.714935 53.380352,211.125244 59.693951,215.740555 
	C68.794731,222.393311 78.068024,228.579559 89.069489,232.580444 
	C97.778503,235.747635 106.410622,239.079041 115.442268,239.770981 
	C132.080002,241.045609 148.731262,239.587738 164.490082,233.640152 
	C174.097992,230.014008 183.667206,225.833817 192.415756,220.522186 
	C199.673157,216.115906 206.226700,210.189453 212.125198,204.013092 
	C217.433258,198.454956 222.118942,192.020737 225.811234,185.278580 
	C229.689117,178.197556 232.608139,170.456390 234.943634,162.701752 
	C237.544449,154.066132 240.085007,145.168533 240.739151,136.244781 
	C241.857315,120.990494 240.103348,105.741699 233.895309,91.563889 
	C229.730499,82.052391 225.233841,72.463676 219.315643,64.008446 
	C213.976974,56.381180 206.818695,49.901630 199.861465,43.577545 
	C195.238693,39.375439 189.895493,35.633556 184.274460,32.937023 
	C175.004166,28.489847 166.207275,22.679932 155.397736,21.935652 
	C146.254547,21.306105 137.175751,19.740034 128.032455,19.113802 
	C123.476974,18.801792 118.808693,20.179842 114.247879,19.893681 
	C104.501778,19.282179 96.105247,23.816458 87.293777,26.536417 
	C82.537636,28.004562 78.286812,31.258112 73.969292,33.963558 
	C67.715057,37.882591 61.186131,41.524231 55.522610,46.192039 
	C43.093998,56.435555 33.649494,69.102264 27.075550,84.737953 
z"/>
<path fill="#FF3B00" opacity="1.000000" stroke="none" 
	d="
M27.259726,84.401474 
	C33.649494,69.102264 43.093998,56.435555 55.522610,46.192039 
	C61.186131,41.524231 67.715057,37.882591 73.969292,33.963558 
	C78.286812,31.258112 82.537636,28.004562 87.293777,26.536417 
	C96.105247,23.816458 104.501778,19.282179 114.247879,19.893681 
	C118.808693,20.179842 123.476974,18.801792 128.032455,19.113802 
	C137.175751,19.740034 146.254547,21.306105 155.397736,21.935652 
	C166.207275,22.679932 175.004166,28.489847 184.274460,32.937023 
	C189.895493,35.633556 195.238693,39.375439 199.861465,43.577545 
	C206.818695,49.901630 213.976974,56.381180 219.315643,64.008446 
	C225.233841,72.463676 229.730499,82.052391 233.895309,91.563889 
	C240.103348,105.741699 241.857315,120.990494 240.739151,136.244781 
	C240.085007,145.168533 237.544449,154.066132 234.943634,162.701752 
	C232.608139,170.456390 229.689117,178.197556 225.811234,185.278580 
	C222.118942,192.020737 217.433258,198.454956 212.125198,204.013092 
	C206.226700,210.189453 199.673157,216.115906 192.415756,220.522186 
	C183.667206,225.833817 174.097992,230.014008 164.490082,233.640152 
	C148.731262,239.587738 132.080002,241.045609 115.442268,239.770981 
	C106.410622,239.079041 97.778503,235.747635 89.069489,232.580444 
	C78.068024,228.579559 68.794731,222.393311 59.693951,215.740555 
	C53.380352,211.125244 47.370365,205.714935 42.469246,199.653534 
	C37.535595,193.551910 34.048122,186.259155 30.104813,179.386307 
	C27.546198,174.926880 25.090981,170.379517 23.019995,165.681747 
	C22.071068,163.529221 22.301105,160.886017 21.741419,158.525818 
	C20.958490,155.224228 19.277052,152.005783 19.144072,148.704865 
	C18.774693,139.535843 19.831381,130.247314 18.784046,121.184029 
	C17.585974,110.816338 21.453108,101.776077 23.964212,92.320618 
	C24.659563,89.702301 26.020168,87.260658 27.259726,84.401474 
M62.334820,46.104259 
	C61.555428,47.068130 60.776039,48.032001 60.000000,49.000000 
	C60.000000,49.000000 59.995861,48.996639 59.307747,49.108025 
	C56.540424,51.740406 53.773098,54.372784 51.000000,57.000000 
	C51.000000,57.000000 51.004807,57.005753 50.319168,57.110394 
	C47.216286,61.074013 44.113407,65.037628 40.737171,69.578865 
	C40.157272,70.718536 39.577374,71.858208 38.332302,73.156029 
	C35.528885,78.259323 32.493801,83.253677 30.021147,88.512489 
	C28.809984,91.088371 28.643850,94.155617 27.998512,97.664276 
	C27.995016,98.106804 27.991522,98.549324 27.292629,99.176796 
	C24.417639,102.336815 23.219040,105.852592 25.011259,110.515129 
	C25.017744,110.686867 25.024229,110.858604 25.024797,111.500465 
	C25.024797,111.500465 25.028955,111.970604 25.007326,112.481834 
	C25.001505,112.652298 24.995684,112.822754 24.255192,113.247696 
	C23.676857,121.519653 22.861015,129.785812 22.658918,138.066956 
	C22.594835,140.692764 24.167551,143.358505 24.993671,146.754486 
	C24.995289,147.502991 24.996904,148.251495 24.515963,149.557266 
	C24.629234,157.021774 26.673029,163.873642 31.112007,170.716156 
	C32.410637,173.476349 33.709270,176.236542 35.113369,179.693008 
	C39.072754,185.314774 42.924564,191.016083 47.012371,196.542847 
	C57.819462,211.154175 72.226082,220.782196 88.967209,227.562515 
	C107.572861,235.097961 126.456696,237.404556 146.354950,234.309280 
	C162.210449,231.842880 176.349869,225.598694 189.822250,217.443695 
	C192.281937,215.954834 193.964584,213.182281 196.278915,210.493042 
	C196.853424,209.997330 197.427933,209.501617 198.691757,208.894394 
	C203.524170,206.586075 207.246780,203.226059 209.684143,197.896988 
	C211.121948,196.264374 212.559753,194.631760 214.004959,192.507294 
	C214.004959,192.507294 214.010727,192.015411 214.719025,191.903107 
	C221.036331,189.883804 220.735229,183.618988 223.000000,179.000000 
	C223.000000,179.000000 222.998169,178.997147 223.637238,178.857025 
	C225.424011,174.237732 227.210785,169.618454 229.029434,164.235825 
	C231.019928,154.878723 233.868835,145.606689 234.806381,136.145248 
	C236.340424,120.663818 234.037170,105.426590 228.079987,90.941704 
	C225.635956,84.999069 223.181412,78.940300 219.756287,73.554634 
	C216.152328,67.887749 211.666412,62.696262 207.055725,57.775013 
	C200.043243,50.290203 193.061707,42.727474 183.331879,38.399208 
	C178.984772,36.465427 175.096512,33.500175 170.501297,30.517063 
	C169.327347,29.899908 168.217911,28.993568 166.968460,28.714769 
	C160.999786,27.382936 154.993149,26.221350 148.251526,24.997370 
	C147.503052,24.995230 146.754578,24.993090 145.751999,24.256012 
	C145.540634,24.006229 145.332138,23.540514 145.117477,23.537653 
	C134.585739,23.397118 124.053474,23.271090 113.521233,23.268429 
	C113.012794,23.268301 112.504082,24.392811 111.330322,24.994692 
	C110.886879,24.995819 110.443443,24.996948 109.431259,24.512838 
	C105.409897,24.044340 101.479660,23.849594 98.327698,27.990963 
	C97.884987,27.992622 97.442268,27.994282 96.499817,27.537260 
	C92.331688,28.860209 88.049278,29.914951 84.044502,31.621290 
	C82.094688,32.452057 80.663376,34.499756 79.000000,36.000000 
	C79.000000,36.000000 78.997597,35.997238 78.221008,36.001781 
	C74.480316,38.334122 70.739632,40.666462 67.000000,43.000000 
	C67.000000,43.000000 66.998833,42.998894 66.319061,43.097153 
	C65.212296,44.064293 64.105522,45.031433 63.000000,46.000000 
	C63.000000,46.000000 62.998566,45.998707 62.334820,46.104259 
z"/>
<path fill="#FF5100" opacity="1.000000" stroke="none" 
	d="
M27.988026,98.991852 
	C27.991522,98.549324 27.995016,98.106804 28.301218,97.146393 
	C32.068439,88.751633 35.532955,80.874756 38.997475,72.997879 
	C39.577374,71.858208 40.157272,70.718536 41.181297,69.144653 
	C44.751881,64.808876 47.878345,60.907314 51.004807,57.005753 
	C51.004807,57.005753 51.000000,57.000000 51.368595,56.988987 
	C54.490082,54.317528 57.242970,51.657085 59.995861,48.996639 
	C59.995861,48.996639 60.000000,49.000000 60.330799,48.946384 
	C61.440590,47.928082 62.219578,46.963394 62.998566,45.998707 
	C62.998566,45.998707 63.000000,46.000000 63.339592,45.951035 
	C64.785736,44.934345 65.892281,43.966618 66.998833,42.998894 
	C66.998833,42.998894 67.000000,43.000000 67.352623,42.947807 
	C71.469360,40.596157 75.233482,38.296700 78.997597,35.997238 
	C78.997597,35.997238 79.000000,36.000000 79.377197,35.985352 
	C85.502777,33.312450 91.251167,30.654196 96.999557,27.995941 
	C97.442268,27.994282 97.884987,27.992622 99.069183,27.993092 
	C103.207115,26.996172 106.603561,25.997126 110.000000,24.998077 
	C110.443443,24.996948 110.886879,24.995819 112.120438,24.996851 
	C123.942398,24.996325 134.974258,24.993637 146.006104,24.990948 
	C146.754578,24.993090 147.503052,24.995230 148.888214,25.246414 
	C155.779266,27.529741 162.019501,29.610058 168.306168,31.539021 
	C169.076752,31.775459 170.095993,31.201464 171.000000,31.003038 
	C175.096512,33.500175 178.984772,36.465427 183.331879,38.399208 
	C193.061707,42.727474 200.043243,50.290203 207.055725,57.775013 
	C211.666412,62.696262 216.152328,67.887749 219.756287,73.554634 
	C223.181412,78.940300 225.635956,84.999069 228.079987,90.941704 
	C234.037170,105.426590 236.340424,120.663818 234.806381,136.145248 
	C233.868835,145.606689 231.019928,154.878723 228.674164,164.709534 
	C226.545334,169.787888 224.771759,174.392517 222.998169,178.997147 
	C222.998169,178.997147 223.000000,179.000000 222.651855,179.059479 
	C220.934631,181.028412 219.663605,183.019348 218.166107,184.822128 
	C216.914566,186.328812 215.397980,187.615356 214.009933,188.630005 
	C214.353577,187.337357 214.590897,186.365570 215.033096,185.498215 
	C220.042236,175.673233 225.282242,166.148392 227.780441,155.046188 
	C231.431519,138.820496 231.751923,122.894081 228.744781,106.670586 
	C226.037781,92.066299 220.471542,78.467323 210.893951,67.428932 
	C199.539368,54.342514 187.278641,41.706326 169.961182,35.680405 
	C168.611084,34.917618 167.305237,34.459335 165.638168,33.987640 
	C163.185318,32.987633 161.093704,32.001038 158.709656,30.764935 
	C155.407516,29.785082 152.431213,28.686054 149.380356,28.409409 
	C144.612915,27.977106 139.794998,28.101690 134.537933,27.990917 
	C130.385361,27.991545 126.693314,27.991596 122.722031,27.753365 
	C114.907341,28.446733 107.362152,29.312149 99.851822,30.414904 
	C99.119797,30.522390 98.602722,32.093826 97.737564,32.985985 
	C97.489258,32.986240 96.992676,32.991444 96.626633,32.990818 
	C94.650566,33.050350 92.790382,32.605057 91.473206,33.256947 
	C85.316025,36.304237 79.244606,39.543255 73.294769,42.977501 
	C71.893074,43.786560 71.081581,45.618134 69.745232,47.100605 
	C68.994232,47.480911 68.496582,47.739937 67.693314,48.062691 
	C66.922142,48.747368 66.456566,49.368317 65.743240,49.991158 
	C65.495483,49.993050 65.000000,50.000153 64.659927,50.053413 
	C58.550446,56.074383 52.781040,62.042091 47.008156,68.256294 
	C47.004677,68.502792 46.995766,68.995766 46.649841,69.052139 
	C44.254063,72.135376 42.234337,75.183174 40.148506,78.185043 
	C34.644558,86.106148 31.456907,95.123131 29.345213,104.307945 
	C27.627266,111.780182 26.900805,119.699844 27.210081,127.361534 
	C27.573135,136.355453 29.316233,145.322586 30.875158,154.228821 
	C31.866104,159.890152 33.610970,165.419525 35.141144,171.210052 
	C35.463665,171.664658 35.707603,171.861832 36.010323,172.373856 
	C36.684784,174.828140 37.345280,176.912140 37.630951,178.997025 
	C36.506714,178.997513 35.757309,178.997131 35.007900,178.996735 
	C33.709270,176.236542 32.410637,173.476349 31.265598,170.117798 
	C29.278967,162.679626 27.138742,155.839813 24.998520,149.000000 
	C24.996904,148.251495 24.995289,147.502991 24.995560,145.925995 
	C24.994919,134.396072 24.992392,123.694641 24.989864,112.993217 
	C24.995684,112.822754 25.001505,112.652298 25.138008,112.130539 
	C25.431213,111.470955 25.351889,111.221321 25.030714,111.030342 
	C25.024229,110.858604 25.017744,110.686867 25.250942,109.996384 
	C26.323092,105.982384 27.155558,102.487114 27.988026,98.991852 
z"/>
<path fill="#FF4B00" opacity="1.000000" stroke="none" 
	d="
M35.060635,179.344879 
	C35.757309,178.997131 36.506714,178.997513 37.884491,179.223297 
	C43.674923,186.300018 48.836979,193.151352 54.052834,200.341919 
	C56.070862,202.454285 58.035095,204.227448 60.290298,206.162537 
	C69.388130,212.219604 78.194992,218.114761 87.164734,224.197662 
	C87.884346,224.261032 88.441078,224.136688 89.286072,224.049896 
	C90.048485,224.394028 90.522644,224.700577 91.084564,225.338531 
	C95.449440,227.112350 99.726532,228.554779 104.428207,229.998138 
	C112.237679,230.998016 119.607201,232.685623 127.010712,232.850952 
	C141.927383,233.184097 156.395569,230.455795 170.414810,224.002899 
	C173.265121,223.789185 176.330490,224.864014 177.379150,220.991821 
	C182.503098,217.986420 187.253891,214.995804 192.346161,211.955780 
	C193.793732,211.605011 194.899841,211.303665 196.005951,211.002319 
	C193.964584,213.182281 192.281937,215.954834 189.822250,217.443695 
	C176.349869,225.598694 162.210449,231.842880 146.354950,234.309280 
	C126.456696,237.404556 107.572861,235.097961 88.967209,227.562515 
	C72.226082,220.782196 57.819462,211.154175 47.012371,196.542847 
	C42.924564,191.016083 39.072754,185.314774 35.060635,179.344879 
z"/>
<path fill="#FF4500" opacity="1.000000" stroke="none" 
	d="
M145.879059,24.623482 
	C134.974258,24.993637 123.942398,24.996325 112.453018,24.996307 
	C112.504082,24.392811 113.012794,23.268301 113.521233,23.268429 
	C124.053474,23.271090 134.585739,23.397118 145.117477,23.537653 
	C145.332138,23.540514 145.540634,24.006229 145.879059,24.623482 
z"/>
<path fill="#FF4500" opacity="1.000000" stroke="none" 
	d="
M24.622528,113.120453 
	C24.992392,123.694641 24.994919,134.396072 24.994341,145.551727 
	C24.167551,143.358505 22.594835,140.692764 22.658918,138.066956 
	C22.861015,129.785812 23.676857,121.519653 24.622528,113.120453 
z"/>
<path fill="#FF4500" opacity="1.000000" stroke="none" 
	d="
M38.664886,73.076950 
	C35.532955,80.874756 32.068439,88.751633 28.304337,96.814499 
	C28.643850,94.155617 28.809984,91.088371 30.021147,88.512489 
	C32.493801,83.253677 35.528885,78.259323 38.664886,73.076950 
z"/>
<path fill="#FF4500" opacity="1.000000" stroke="none" 
	d="
M170.750641,30.760052 
	C170.095993,31.201464 169.076752,31.775459 168.306168,31.539021 
	C162.019501,29.610058 155.779266,27.529741 149.262451,25.247341 
	C154.993149,26.221350 160.999786,27.382936 166.968460,28.714769 
	C168.217911,28.993568 169.327347,29.899908 170.750641,30.760052 
z"/>
<path fill="#FF4500" opacity="1.000000" stroke="none" 
	d="
M24.757240,149.278625 
	C27.138742,155.839813 29.278967,162.679626 31.211210,169.759705 
	C26.673029,163.873642 24.629234,157.021774 24.757240,149.278625 
z"/>
<path fill="#FF4500" opacity="1.000000" stroke="none" 
	d="
M96.749687,27.766600 
	C91.251167,30.654196 85.502777,33.312450 79.375870,35.983643 
	C80.663376,34.499756 82.094688,32.452057 84.044502,31.621290 
	C88.049278,29.914951 92.331688,28.860209 96.749687,27.766600 
z"/>
<path fill="#FF4500" opacity="1.000000" stroke="none" 
	d="
M50.661987,57.058075 
	C47.878345,60.907314 44.751881,64.808876 41.317970,68.855843 
	C44.113407,65.037628 47.216286,61.074013 50.661987,57.058075 
z"/>
<path fill="#FF4B00" opacity="1.000000" stroke="none" 
	d="
M213.998779,188.999390 
	C215.397980,187.615356 216.914566,186.328812 218.166107,184.822128 
	C219.663605,183.019348 220.934631,181.028412 222.650406,179.058594 
	C220.735229,183.618988 221.036331,189.883804 214.361008,191.622559 
	C214.000961,190.893494 213.998932,190.444977 213.995453,189.745026 
	C213.990112,189.326035 213.986206,189.158432 213.987762,188.993149 
	C213.993240,188.995453 213.998779,188.999390 213.998779,188.999390 
z"/>
<path fill="#FF4B00" opacity="1.000000" stroke="none" 
	d="
M209.008438,198.007751 
	C207.246780,203.226059 203.524170,206.586075 198.346191,208.615540 
	C198.000214,207.890732 197.999802,207.444748 198.254425,206.862091 
	C199.005692,206.149872 199.501923,205.574356 200.337219,204.945831 
	C202.116791,203.260834 203.557312,201.628845 205.115707,199.743576 
	C205.490616,198.994461 205.747635,198.498611 206.378754,198.002350 
	C207.501083,198.000458 208.249313,197.999008 208.999069,197.999054 
	C209.000580,198.000549 209.008438,198.007751 209.008438,198.007751 
z"/>
<path fill="#FF4B00" opacity="1.000000" stroke="none" 
	d="
M223.317719,178.927094 
	C224.771759,174.392517 226.545334,169.787888 228.658234,165.091202 
	C227.210785,169.618454 225.424011,174.237732 223.317719,178.927094 
z"/>
<path fill="#FF4500" opacity="1.000000" stroke="none" 
	d="
M27.640327,99.084320 
	C27.155558,102.487114 26.323092,105.982384 25.243233,109.738716 
	C23.219040,105.852592 24.417639,102.336815 27.640327,99.084320 
z"/>
<path fill="#FF4500" opacity="1.000000" stroke="none" 
	d="
M109.715630,24.755459 
	C106.603561,25.997126 103.207115,26.996172 99.401222,27.991543 
	C101.479660,23.849594 105.409897,24.044340 109.715630,24.755459 
z"/>
<path fill="#FF4500" opacity="1.000000" stroke="none" 
	d="
M78.609299,35.999512 
	C75.233482,38.296700 71.469360,40.596157 67.352097,42.947212 
	C70.739632,40.666462 74.480316,38.334122 78.609299,35.999512 
z"/>
<path fill="#FF4500" opacity="1.000000" stroke="none" 
	d="
M59.651802,49.052330 
	C57.242970,51.657085 54.490082,54.317528 51.371483,56.991570 
	C53.773098,54.372784 56.540424,51.740406 59.651802,49.052330 
z"/>
<path fill="#FF4B00" opacity="1.000000" stroke="none" 
	d="
M213.997559,192.999130 
	C212.559753,194.631760 211.121948,196.264374 209.346283,197.952362 
	C209.008438,198.007751 209.000580,198.000549 208.999908,197.624847 
	C209.000320,196.500717 209.001389,195.752304 209.204132,194.874176 
	C209.657700,194.539261 209.857391,194.291916 210.345917,193.953766 
	C211.790497,193.603104 212.894028,193.301117 213.997559,192.999130 
z"/>
<path fill="#FF5100" opacity="1.000000" stroke="none" 
	d="
M197.999405,206.998779 
	C197.999802,207.444748 198.000214,207.890732 198.001526,208.671295 
	C197.427933,209.501617 196.853424,209.997330 196.142426,210.747681 
	C194.899841,211.303665 193.793732,211.605011 192.343872,211.953247 
	C192.000122,212.000137 191.998840,211.998779 192.074005,211.672470 
	C194.099258,209.897034 196.049332,208.447906 197.999405,206.998779 
z"/>
<path fill="#FF5100" opacity="1.000000" stroke="none" 
	d="
M214.001251,192.753204 
	C212.894028,193.301117 211.790497,193.603104 210.396973,193.624298 
	C211.403610,192.227814 212.700256,191.112137 213.996887,189.996460 
	C213.998932,190.444977 214.000961,190.893494 214.006866,191.678711 
	C214.010727,192.015411 214.004959,192.507294 214.001251,192.753204 
z"/>
<path fill="#FF4500" opacity="1.000000" stroke="none" 
	d="
M66.658951,43.048019 
	C65.892281,43.966618 64.785736,44.934345 63.338974,45.950325 
	C64.105522,45.031433 65.212296,44.064293 66.658951,43.048019 
z"/>
<path fill="#FF4500" opacity="1.000000" stroke="none" 
	d="
M62.666695,46.051483 
	C62.219578,46.963394 61.440590,47.928082 60.329124,48.944321 
	C60.776039,48.032001 61.555428,47.068130 62.666695,46.051483 
z"/>
<path fill="#FF5E00" opacity="1.000000" stroke="none" 
	d="
M25.027756,111.265404 
	C25.351889,111.221321 25.431213,111.470955 25.148823,111.874924 
	C25.028955,111.970604 25.024797,111.500465 25.027756,111.265404 
z"/>
<path fill="#FF6500" opacity="1.000000" stroke="none" 
	d="
M170.005447,35.984909 
	C187.278641,41.706326 199.539368,54.342514 210.893951,67.428932 
	C220.471542,78.467323 226.037781,92.066299 228.744781,106.670586 
	C231.751923,122.894081 231.431519,138.820496 227.780441,155.046188 
	C225.282242,166.148392 220.042236,175.673233 215.033096,185.498215 
	C214.590897,186.365570 214.353577,187.337357 214.009949,188.630005 
	C213.998779,188.999390 213.993240,188.995453 213.574860,188.994705 
	C211.777435,188.997482 210.398407,189.001007 208.884460,188.780640 
	C210.311630,186.719650 212.452896,185.123886 213.336121,183.003952 
	C217.287674,173.519394 223.708603,165.063156 224.641251,154.289978 
	C225.264343,147.092606 227.329697,140.016174 227.894257,132.818527 
	C228.879166,120.261940 226.916885,107.861610 222.827942,96.050636 
	C220.149155,88.312927 216.666260,80.547104 211.981354,73.893867 
	C206.978455,66.789062 200.180801,60.936790 194.062057,54.639336 
	C192.964600,53.509819 191.359772,52.873272 189.737183,51.889633 
	C188.991211,51.511806 188.497223,51.253456 187.925781,50.666428 
	C182.064178,46.672558 176.264526,43.031456 170.511490,39.318111 
	C169.568085,38.709190 168.829941,37.782272 168.287079,36.962078 
	C169.053299,36.609524 169.529373,36.297215 170.005447,35.984909 
z"/>
<path fill="#FF5E00" opacity="1.000000" stroke="none" 
	d="
M35.017761,171.008072 
	C33.610970,165.419525 31.866104,159.890152 30.875158,154.228821 
	C29.316233,145.322586 27.573135,136.355453 27.210081,127.361534 
	C26.900805,119.699844 27.627266,111.780182 29.345213,104.307945 
	C31.456907,95.123131 34.644558,86.106148 40.148506,78.185043 
	C42.234337,75.183174 44.254063,72.135376 46.595169,69.401886 
	C45.591198,72.796974 44.295979,75.898697 42.882935,79.253876 
	C42.509571,80.004204 42.254036,80.501091 41.670513,81.074966 
	C40.231186,83.434433 39.119846,85.716904 37.855591,88.332130 
	C35.959896,94.802086 34.030209,100.893517 32.513775,107.086136 
	C29.481070,119.470711 28.923016,132.019653 31.080061,144.598526 
	C32.138988,150.773682 33.683598,156.865555 35.018784,163.362213 
	C34.716625,166.155075 39.186291,168.588348 35.017761,171.008072 
z"/>
<path fill="#FF6500" opacity="1.000000" stroke="none" 
	d="
M123.001259,27.991648 
	C126.693314,27.991596 130.385361,27.991545 134.848221,28.244112 
	C142.723129,29.806107 149.820312,31.156773 156.943954,32.349529 
	C157.538803,32.449131 158.311829,31.484581 159.002075,31.014439 
	C161.093704,32.001038 163.185318,32.987633 165.638184,34.320564 
	C165.999680,35.110825 165.999939,35.554752 165.756226,36.208405 
	C160.007141,35.280281 154.502045,34.142429 148.591354,32.934616 
	C131.916595,30.675922 115.664505,28.750519 99.845703,35.714874 
	C98.791382,34.963261 97.897652,34.484371 97.001625,33.751961 
	C96.997108,33.329445 96.994896,33.160446 96.992676,32.991444 
	C96.992676,32.991444 97.489258,32.986240 98.135765,32.974403 
	C106.855270,31.305595 114.928261,29.648621 123.001259,27.991648 
z"/>
<path fill="#FF6A00" opacity="1.000000" stroke="none" 
	d="
M35.141144,171.210052 
	C39.186291,168.588348 34.716625,166.155075 35.391556,163.363617 
	C36.499969,163.000656 37.245995,163.003403 38.131523,163.312195 
	C40.465336,168.980164 41.831905,174.911499 45.040421,179.575745 
	C50.370209,187.323730 56.820652,194.311523 62.972046,201.470886 
	C63.794605,202.428238 65.625114,202.519562 67.046127,203.363495 
	C68.402252,204.810028 69.701118,205.905014 71.127945,207.202881 
	C71.459511,207.659729 71.707260,207.858749 72.068924,208.321106 
	C72.760056,209.758591 73.381424,210.877762 73.642357,211.943329 
	C70.345009,209.917450 67.391838,207.968826 64.477074,205.964371 
	C62.620365,204.687561 60.820599,203.327972 58.848972,201.734070 
	C57.800919,200.642944 56.899197,199.823227 55.944813,198.662537 
	C55.593109,197.737579 55.415104,197.034912 54.976578,196.587708 
	C49.804085,191.312561 44.511440,186.265854 41.980324,178.886963 
	C41.066139,176.221878 38.052147,174.277069 35.996353,172.003571 
	C35.707603,171.861832 35.463665,171.664658 35.141144,171.210052 
z"/>
<path fill="#FF5E00" opacity="1.000000" stroke="none" 
	d="
M36.010319,172.373856 
	C38.052147,174.277069 41.066139,176.221878 41.980324,178.886963 
	C44.511440,186.265854 49.804085,191.312561 54.976578,196.587708 
	C55.415104,197.034912 55.593109,197.737579 55.691467,198.780090 
	C54.993542,199.493317 54.496292,199.748016 53.999039,200.002716 
	C48.836979,193.151352 43.674923,186.300018 38.259319,179.222412 
	C37.345280,176.912140 36.684784,174.828140 36.010319,172.373856 
z"/>
<path fill="#FF5E00" opacity="1.000000" stroke="none" 
	d="
M96.626633,32.990818 
	C96.994896,33.160446 96.997108,33.329445 96.813972,34.051014 
	C93.752937,35.737858 90.877258,36.872139 87.627686,38.017235 
	C83.782967,39.023743 80.077652,39.694878 78.679810,44.143890 
	C75.576744,45.531792 72.788155,46.771011 69.999847,47.752502 
	C69.999626,47.322956 69.999107,47.151142 69.998581,46.979324 
	C71.081581,45.618134 71.893074,43.786560 73.294769,42.977501 
	C79.244606,39.543255 85.316025,36.304237 91.473206,33.256947 
	C92.790382,32.605057 94.650566,33.050350 96.626633,32.990818 
z"/>
<path fill="#FF6A00" opacity="1.000000" stroke="none" 
	d="
M43.000763,79.000427 
	C44.295979,75.898697 45.591198,72.796974 46.941093,69.345505 
	C46.995766,68.995766 47.004677,68.502792 47.358475,68.201378 
	C49.235966,66.775993 50.819767,65.724045 52.270733,64.512947 
	C55.217621,62.053219 58.092693,59.507458 60.998817,56.998714 
	C61.000275,57.000275 61.004135,57.004135 60.948929,57.344093 
	C58.505604,60.602612 56.150089,63.548626 53.721622,66.433220 
	C50.175488,70.645424 46.576958,74.813530 43.000763,79.000427 
z"/>
<path fill="#FF5E00" opacity="1.000000" stroke="none" 
	d="
M60.997360,56.997154 
	C58.092693,59.507458 55.217621,62.053219 52.270733,64.512947 
	C50.819767,65.724045 49.235966,66.775993 47.361954,67.954880 
	C52.781040,62.042091 58.550446,56.074383 64.606796,50.393433 
	C63.594952,52.785843 62.296158,54.891499 60.997360,56.997154 
z"/>
<path fill="#FF5E00" opacity="1.000000" stroke="none" 
	d="
M122.722031,27.753365 
	C114.928261,29.648621 106.855270,31.305595 98.384071,32.974148 
	C98.602722,32.093826 99.119797,30.522390 99.851822,30.414904 
	C107.362152,29.312149 114.907341,28.446733 122.722031,27.753365 
z"/>
<path fill="#FF5E00" opacity="1.000000" stroke="none" 
	d="
M158.709656,30.764935 
	C158.311829,31.484581 157.538803,32.449131 156.943954,32.349529 
	C149.820312,31.156773 142.723129,29.806107 135.308746,28.243534 
	C139.794998,28.101690 144.612915,27.977106 149.380356,28.409409 
	C152.431213,28.686054 155.407516,29.785082 158.709656,30.764935 
z"/>
<path fill="#FF6A00" opacity="1.000000" stroke="none" 
	d="
M60.998817,56.998711 
	C62.296158,54.891499 63.594952,52.785843 64.946869,50.340172 
	C65.000000,50.000153 65.495483,49.993050 66.050354,49.930290 
	C67.069786,49.244671 67.534355,48.621811 67.998924,47.998955 
	C68.496582,47.739937 68.994232,47.480911 69.745232,47.100605 
	C69.999107,47.151142 69.999626,47.322956 69.979736,48.118576 
	C68.968437,50.823830 67.977554,52.905285 66.638130,55.041767 
	C64.527779,55.732574 62.765957,56.368355 61.004135,57.004135 
	C61.004135,57.004135 61.000275,57.000275 60.998817,56.998711 
z"/>
<path fill="#FF5E00" opacity="1.000000" stroke="none" 
	d="
M166.000198,35.998676 
	C165.999939,35.554752 165.999680,35.110825 165.999405,34.333977 
	C167.305237,34.459335 168.611084,34.917618 169.961182,35.680405 
	C169.529373,36.297215 169.053299,36.609524 168.094696,36.745632 
	C167.074829,36.379181 166.537521,36.188927 166.000198,35.998676 
z"/>
<path fill="#FF5E00" opacity="1.000000" stroke="none" 
	d="
M67.693314,48.062687 
	C67.534355,48.621811 67.069786,49.244671 66.298111,49.928394 
	C66.456566,49.368317 66.922142,48.747368 67.693314,48.062687 
z"/>
<path fill="#FF5E00" opacity="1.000000" stroke="none" 
	d="
M58.995308,202.005493 
	C60.820599,203.327972 62.620365,204.687561 64.477074,205.964371 
	C67.391838,207.968826 70.345009,209.917450 73.640961,211.944855 
	C74.000000,212.000000 74.002075,211.997147 74.159348,212.273773 
	C75.213890,213.030579 76.111160,213.510773 77.256256,213.992645 
	C77.504082,213.994339 77.999695,214.000595 78.075912,214.331665 
	C82.427727,219.276642 87.469093,222.239975 94.227234,222.239685 
	C95.309525,222.643799 96.155975,222.819458 97.292618,223.127960 
	C98.389877,223.504501 99.196953,223.748184 100.261238,224.240295 
	C117.919334,230.821503 135.548141,230.474930 153.262695,226.128677 
	C157.900146,224.990875 162.423584,223.388443 167.377899,221.999786 
	C168.514496,221.998398 169.272568,221.996597 170.175934,222.157532 
	C170.216110,222.881393 170.111008,223.442520 170.005890,224.003662 
	C156.395569,230.455795 141.927383,233.184097 127.010712,232.850952 
	C119.607201,232.685623 112.237679,230.998016 104.327591,229.655792 
	C99.533875,227.877365 95.265343,226.442245 90.996796,225.007141 
	C90.522644,224.700577 90.048485,224.394028 89.124435,223.858536 
	C88.116974,223.756363 87.559418,223.883133 87.001862,224.009918 
	C78.194992,218.114761 69.388130,212.219604 60.242352,205.821106 
	C59.600723,204.213669 59.298016,203.109589 58.995308,202.005493 
z"/>
<path fill="#FF5100" opacity="1.000000" stroke="none" 
	d="
M192.002411,212.002655 
	C187.253891,214.995804 182.503098,217.986420 177.376251,220.988632 
	C177.000198,221.000229 177.000000,221.000000 177.149994,220.724335 
	C178.202835,219.301544 179.105698,218.154419 180.256577,217.005371 
	C180.504593,217.003433 181.000610,217.000610 181.355042,216.947586 
	C185.139252,215.262634 188.569046,213.630707 191.998840,211.998779 
	C191.998840,211.998779 192.000122,212.000137 192.002411,212.002655 
z"/>
<path fill="#FF5100" opacity="1.000000" stroke="none" 
	d="
M91.084572,225.338516 
	C95.265343,226.442245 99.533875,227.877365 103.903015,229.654846 
	C99.726532,228.554779 95.449440,227.112350 91.084572,225.338516 
z"/>
<path fill="#FF5100" opacity="1.000000" stroke="none" 
	d="
M58.848969,201.734085 
	C59.298016,203.109589 59.600723,204.213669 59.951382,205.659180 
	C58.035095,204.227448 56.070862,202.454285 54.052834,200.341919 
	C54.496292,199.748016 54.993542,199.493317 55.744133,199.121063 
	C56.899197,199.823227 57.800919,200.642944 58.848969,201.734085 
z"/>
<path fill="#FF5100" opacity="1.000000" stroke="none" 
	d="
M170.414825,224.002899 
	C170.111008,223.442520 170.216110,222.881393 170.433746,221.922211 
	C171.697617,221.349701 172.848953,221.175217 174.375259,221.001022 
	C175.500137,221.000885 176.250076,221.000443 177.000000,221.000000 
	C177.000000,221.000000 177.000198,221.000229 177.003113,221.003418 
	C176.330490,224.864014 173.265121,223.789185 170.414825,224.002899 
z"/>
<path fill="#FF5100" opacity="1.000000" stroke="none" 
	d="
M87.164734,224.197647 
	C87.559418,223.883133 88.116974,223.756363 88.836174,223.820953 
	C88.441078,224.136688 87.884346,224.261032 87.164734,224.197647 
z"/>
<path fill="#FF5E00" opacity="1.000000" stroke="none" 
	d="
M192.074005,211.672470 
	C188.569046,213.630707 185.139252,215.262634 181.354904,216.573349 
	C181.001862,215.503952 181.003372,214.755753 181.355972,213.948059 
	C185.804642,210.925690 189.902222,207.962845 194.337051,204.947189 
	C195.783981,203.597946 196.893661,202.301529 198.001678,201.002548 
	C198.000000,201.000000 198.005112,201.003342 198.344604,200.948914 
	C201.457428,197.932083 204.230743,194.969696 207.237442,191.813782 
	C207.987015,190.748352 208.503204,189.876450 209.019379,189.004532 
	C210.398407,189.001007 211.777435,188.997482 213.569382,188.992401 
	C213.986206,189.158432 213.990112,189.326035 213.995453,189.745041 
	C212.700256,191.112137 211.403610,192.227814 210.055923,193.672974 
	C209.857391,194.291916 209.657700,194.539261 208.931824,195.018875 
	C207.640121,196.196442 206.822403,197.099609 206.004669,198.002777 
	C205.747635,198.498611 205.490616,198.994461 204.777161,199.797791 
	C202.879898,201.736465 201.439041,203.367661 199.998169,204.998871 
	C199.501923,205.574356 199.005692,206.149872 198.254425,206.862091 
	C196.049332,208.447906 194.099258,209.897034 192.074005,211.672470 
z"/>
<path fill="#FF5100" opacity="1.000000" stroke="none" 
	d="
M200.337219,204.945847 
	C201.439041,203.367661 202.879898,201.736465 204.659302,200.051056 
	C203.557312,201.628845 202.116791,203.260834 200.337219,204.945847 
z"/>
<path fill="#FF5100" opacity="1.000000" stroke="none" 
	d="
M206.378754,198.002350 
	C206.822403,197.099609 207.640121,196.196442 208.730133,195.148575 
	C209.001389,195.752304 209.000320,196.500717 208.998413,197.623352 
	C208.249313,197.999008 207.501083,198.000458 206.378754,198.002350 
z"/>
<path fill="#FF8300" opacity="1.000000" stroke="none" 
	d="
M71.999161,208.002808 
	C71.707260,207.858749 71.459511,207.659729 71.031639,206.957764 
	C70.871277,205.674820 70.935181,204.839844 71.000259,203.749481 
	C71.002510,203.323837 71.003586,203.153610 71.375793,202.998215 
	C75.653221,205.024872 79.819794,206.656235 83.418266,209.117981 
	C95.475739,217.366699 109.176949,219.945526 123.276840,220.884995 
	C129.022232,221.267776 134.853256,220.107468 140.643982,220.123993 
	C151.166031,220.154037 161.188065,217.193207 170.102158,212.515244 
	C180.501846,207.057648 190.390961,200.368576 198.000336,190.743301 
	C203.440826,183.861542 209.506485,177.475845 212.681381,169.173355 
	C214.940796,163.264862 217.307922,157.233093 218.301544,151.043564 
	C219.789948,141.771805 220.199020,132.318954 220.835297,122.927406 
	C220.921265,121.658585 219.662491,120.298668 219.024109,118.651825 
	C219.018433,117.883682 219.015030,117.444649 219.256348,116.706581 
	C219.507614,114.625984 219.855545,112.764046 219.458481,111.077477 
	C218.111282,105.354813 216.500671,99.694160 214.979492,93.625717 
	C214.287766,91.076202 214.038254,88.628937 212.842621,86.800301 
	C209.753616,82.075935 210.001343,74.917366 202.992981,72.619621 
	C200.695679,66.680351 195.548706,64.158508 190.995605,60.627365 
	C189.531693,56.638008 187.894180,53.249603 182.707001,53.921139 
	C181.602585,53.243851 180.801514,52.621696 179.914612,51.665905 
	C177.553024,50.220970 175.277298,49.109669 172.701385,47.830856 
	C170.934753,47.107716 169.468338,46.552082 167.941040,45.645966 
	C165.468185,43.867561 163.141876,42.260952 160.624146,41.053467 
	C156.819290,39.228683 152.880997,37.682129 148.999725,35.763828 
	C149.000015,35.341305 149.000015,35.172298 149.374344,35.003265 
	C150.497360,35.003990 151.246048,35.004749 152.076309,35.327202 
	C154.104752,36.100437 156.051620,36.551983 158.287872,37.247162 
	C163.049484,39.169369 167.645493,40.582195 171.962738,42.593388 
	C177.428146,45.139454 182.666794,48.172234 188.003250,50.995102 
	C188.497223,51.253456 188.991211,51.511806 189.751175,52.252605 
	C191.664642,54.932850 193.144226,57.284569 194.991364,59.299305 
	C200.325409,65.117340 207.243286,70.015182 210.903397,76.714447 
	C216.759277,87.432732 222.924118,98.544930 223.486115,111.252136 
	C224.018600,123.291901 224.950714,135.505585 223.519379,147.379059 
	C222.405075,156.622589 218.491440,165.701843 214.759903,174.398422 
	C212.076721,180.651733 207.643433,186.154083 203.651840,192.047150 
	C199.894135,195.215622 196.513611,198.371704 193.045532,201.428452 
	C189.834686,204.258484 186.880127,207.629028 183.196259,209.622284 
	C174.709396,214.214386 166.514435,219.543854 156.736877,221.787415 
	C152.978958,222.713379 149.484161,223.849762 145.590485,224.987244 
	C144.127884,224.989929 143.064148,224.991470 141.810913,224.810364 
	C141.077042,225.080399 140.532669,225.533096 139.589569,225.986633 
	C138.127487,225.987350 137.064163,225.987228 135.675522,225.734299 
	C130.899918,225.321396 126.449615,225.161301 121.599419,225.000626 
	C120.133118,224.998993 119.066711,224.997940 117.786514,224.788483 
	C110.714546,223.054199 103.856361,221.528320 96.749481,220.001221 
	C96.500793,220.000000 96.003380,219.996948 95.817230,219.700394 
	C88.483932,215.407364 81.351250,211.384262 74.157166,207.474121 
	C73.675819,207.212494 72.729317,207.806686 71.999161,208.002808 
z"/>
<path fill="#FF7100" opacity="1.000000" stroke="none" 
	d="
M203.990845,191.991425 
	C207.643433,186.154083 212.076721,180.651733 214.759903,174.398422 
	C218.491440,165.701843 222.405075,156.622589 223.519379,147.379059 
	C224.950714,135.505585 224.018600,123.291901 223.486115,111.252136 
	C222.924118,98.544930 216.759277,87.432732 210.903397,76.714447 
	C207.243286,70.015182 200.325409,65.117340 194.991364,59.299305 
	C193.144226,57.284569 191.664642,54.932850 190.003174,52.372082 
	C191.359772,52.873272 192.964600,53.509819 194.062057,54.639336 
	C200.180801,60.936790 206.978455,66.789062 211.981354,73.893867 
	C216.666260,80.547104 220.149155,88.312927 222.827942,96.050636 
	C226.916885,107.861610 228.879166,120.261940 227.894257,132.818527 
	C227.329697,140.016174 225.264343,147.092606 224.641251,154.289978 
	C223.708603,165.063156 217.287674,173.519394 213.336121,183.003952 
	C212.452896,185.123886 210.311630,186.719650 208.884476,188.780640 
	C208.503204,189.876450 207.987015,190.748352 206.862701,191.811920 
	C205.505585,192.005051 204.756592,192.006500 204.004028,192.004211 
	C204.000458,192.000473 203.990845,191.991440 203.990845,191.991425 
z"/>
<path fill="#FF7100" opacity="1.000000" stroke="none" 
	d="
M151.994720,35.005508 
	C151.246048,35.004749 150.497360,35.003990 149.374115,34.670067 
	C148.998672,33.892792 148.997818,33.448685 148.996948,33.004578 
	C154.502045,34.142429 160.007141,35.280281 165.756226,36.208405 
	C166.537521,36.188927 167.074829,36.379181 167.804550,36.785877 
	C168.829941,37.782272 169.568085,38.709190 170.511490,39.318111 
	C176.264526,43.031456 182.064178,46.672558 187.925781,50.666428 
	C182.666794,48.172234 177.428146,45.139454 171.962738,42.593388 
	C167.645493,40.582195 163.049484,39.169369 158.135590,36.979698 
	C155.794174,35.980900 153.894440,35.493206 151.994720,35.005508 
z"/>
<path fill="#FF7100" opacity="1.000000" stroke="none" 
	d="
M60.948929,57.344093 
	C62.765957,56.368355 64.527779,55.732574 66.643707,55.047325 
	C66.997810,54.997860 67.001266,55.000942 66.945862,55.342442 
	C63.927433,59.456165 60.964405,63.228390 57.995216,67.244568 
	C57.989056,67.488525 57.985298,67.976578 57.638729,68.039276 
	C55.858452,69.734413 54.424747,71.366844 52.989151,73.249496 
	C52.991505,73.666473 52.995754,73.833237 52.998966,73.998337 
	C52.997932,73.996666 52.989925,73.990349 52.621635,74.002563 
	C51.023109,74.970467 49.315674,75.671890 48.647030,76.926796 
	C46.052410,81.796402 43.342480,86.684143 41.508831,91.860344 
	C38.969711,99.028023 36.598881,106.356110 35.245617,113.813240 
	C34.021885,120.556564 33.535816,127.618149 34.032585,134.444199 
	C34.704216,143.673004 36.626125,152.810822 38.007080,162.242310 
	C37.999039,162.666672 37.995529,162.836411 37.992020,163.006149 
	C37.245995,163.003403 36.499969,163.000656 35.381176,162.996521 
	C33.683598,156.865555 32.138988,150.773682 31.080061,144.598526 
	C28.923016,132.019653 29.481070,119.470711 32.513775,107.086136 
	C34.030209,100.893517 35.959896,94.802086 38.153168,88.162476 
	C39.735275,85.439362 40.866886,83.218674 41.998501,80.997978 
	C42.254036,80.501091 42.509571,80.004204 42.882935,79.253876 
	C46.576958,74.813530 50.175488,70.645424 53.721622,66.433220 
	C56.150089,63.548626 58.505604,60.602612 60.948929,57.344093 
z"/>
<path fill="#FF6A00" opacity="1.000000" stroke="none" 
	d="
M41.670513,81.074966 
	C40.866886,83.218674 39.735275,85.439362 38.306084,87.829712 
	C39.119846,85.716904 40.231186,83.434433 41.670513,81.074966 
z"/>
<path fill="#FF7900" opacity="1.000000" stroke="none" 
	d="
M148.591354,32.934616 
	C148.997818,33.448685 148.998672,33.892792 148.999771,34.670097 
	C149.000015,35.172298 149.000015,35.341305 148.624786,35.759712 
	C147.499710,36.008083 146.749878,36.007057 145.698822,35.755222 
	C137.174088,35.012146 128.926178,33.910488 120.735458,34.238209 
	C115.115822,34.463058 109.575676,36.674904 103.667397,38.001545 
	C102.891319,38.008324 102.447853,38.012108 101.797989,37.863045 
	C100.726768,37.805569 99.861946,37.900951 99.037018,37.706932 
	C99.386719,36.940891 99.696518,36.464245 100.006310,35.987595 
	C115.664505,28.750519 131.916595,30.675922 148.591354,32.934616 
z"/>
<path fill="#FF7100" opacity="1.000000" stroke="none" 
	d="
M99.845703,35.714874 
	C99.696518,36.464245 99.386719,36.940891 98.676987,37.709427 
	C97.184189,38.333786 96.091331,38.666264 94.623947,39.012230 
	C91.832642,40.349354 89.415863,41.672989 86.750603,42.999260 
	C86.502129,43.001888 86.005157,43.004211 85.604950,43.002560 
	C84.138130,43.002060 83.071503,43.003212 82.172577,42.717941 
	C84.227371,40.956482 86.114471,39.481453 88.001579,38.006416 
	C90.877258,36.872139 93.752937,35.737858 96.816277,34.304527 
	C97.897652,34.484371 98.791382,34.963261 99.845703,35.714874 
z"/>
<path fill="#FF7900" opacity="1.000000" stroke="none" 
	d="
M38.131523,163.312195 
	C37.995529,162.836411 37.999039,162.666672 38.339821,162.333130 
	C39.786263,163.960556 41.111191,165.654663 41.968533,167.559265 
	C46.516079,177.661880 51.285042,187.527786 60.161366,194.811417 
	C62.862301,197.027725 64.746300,200.239594 67.001587,202.998383 
	C66.998718,203.001282 66.988861,203.011932 66.988861,203.011932 
	C65.625114,202.519562 63.794605,202.428238 62.972046,201.470886 
	C56.820652,194.311523 50.370209,187.323730 45.040421,179.575745 
	C41.831905,174.911499 40.465336,168.980164 38.131523,163.312195 
z"/>
<path fill="#FF7900" opacity="1.000000" stroke="none" 
	d="
M72.068924,208.321106 
	C72.729317,207.806686 73.675819,207.212494 74.157166,207.474121 
	C81.351250,211.384262 88.483932,215.407364 95.482117,219.701904 
	C94.886322,220.003235 94.439499,220.006500 93.609200,219.993866 
	C88.150383,217.985504 83.075043,215.993042 77.999695,214.000595 
	C77.999695,214.000595 77.504082,213.994339 77.172592,213.666016 
	C75.894760,212.890823 74.948418,212.443985 74.002075,211.997147 
	C74.002075,211.997147 74.000000,212.000000 74.001389,211.998474 
	C73.381424,210.877762 72.760056,209.758591 72.068924,208.321106 
z"/>
<path fill="#FF7900" opacity="1.000000" stroke="none" 
	d="
M70.999084,204.004883 
	C70.935181,204.839844 70.871277,205.674820 70.903671,206.754883 
	C69.701118,205.905014 68.402252,204.810028 67.046127,203.363495 
	C66.988861,203.011932 66.998718,203.001282 67.342636,203.047607 
	C68.790741,203.397568 69.894913,203.701218 70.999084,204.004883 
z"/>
<path fill="#FF7100" opacity="1.000000" stroke="none" 
	d="
M66.992233,54.992302 
	C67.977554,52.905285 68.968437,50.823830 69.979439,48.376301 
	C72.788155,46.771011 75.576744,45.531792 79.014603,44.145973 
	C80.110130,44.000549 80.556389,44.001724 80.962082,44.318405 
	C80.614235,45.422356 80.306961,46.210796 79.751755,47.001915 
	C79.503815,47.004597 79.007919,47.006344 78.657494,47.056011 
	C76.538445,48.400051 74.769814,49.694424 72.669754,51.046852 
	C70.559296,52.403587 68.780281,53.702267 67.001266,55.000942 
	C67.001266,55.000942 66.997810,54.997860 66.992233,54.992302 
z"/>
<path fill="#FF6A00" opacity="1.000000" stroke="none" 
	d="
M81.002647,44.002899 
	C80.556389,44.001724 80.110130,44.000549 79.329079,43.997292 
	C80.077652,39.694878 83.782967,39.023743 87.627686,38.017239 
	C86.114471,39.481453 84.227371,40.956482 81.970451,42.846588 
	C81.347565,43.465382 81.148239,43.712463 81.002647,44.002899 
z"/>
<path fill="#FF7100" opacity="1.000000" stroke="none" 
	d="
M157.000000,221.997803 
	C166.514435,219.543854 174.709396,214.214386 183.196259,209.622284 
	C186.880127,207.629028 189.834686,204.258484 193.045532,201.428452 
	C196.513611,198.371704 199.894135,195.215622 203.651855,192.047150 
	C203.990845,191.991440 204.000458,192.000473 203.948181,192.343536 
	C201.932327,195.458862 199.968719,198.231110 198.005112,201.003342 
	C198.005112,201.003342 198.000000,201.000000 197.664124,201.054413 
	C196.218750,202.405884 195.109268,203.702942 193.999786,205.000000 
	C189.902222,207.962845 185.804642,210.925690 181.015381,213.995056 
	C179.216003,215.067932 178.108307,216.034271 177.000305,217.000305 
	C177.000000,217.000000 177.000351,217.000610 176.630890,217.013092 
	C173.174072,218.683533 170.086731,220.341461 166.999390,221.999390 
	C162.423584,223.388443 157.900146,224.990875 153.262695,226.128677 
	C135.548141,230.474930 117.919334,230.821503 100.526711,224.029663 
	C103.070358,223.985199 105.592354,224.578629 108.144478,224.769684 
	C111.417084,225.014694 114.713913,224.936066 118.000305,224.996887 
	C119.066711,224.997940 120.133118,224.998993 121.728775,225.373352 
	C126.838959,225.826813 131.419891,225.906967 136.000824,225.987122 
	C137.064163,225.987228 138.127487,225.987350 139.880203,225.952301 
	C141.046524,225.609100 141.523468,225.301056 142.000427,224.993011 
	C143.064148,224.991470 144.127884,224.989929 146.002792,224.991089 
	C150.209320,223.995132 153.604660,222.996475 157.000000,221.997803 
z"/>
<path fill="#FF7900" opacity="1.000000" stroke="none" 
	d="
M117.786514,224.788483 
	C114.713913,224.936066 111.417084,225.014694 108.144478,224.769684 
	C105.592354,224.578629 103.070358,223.985199 100.269501,223.781219 
	C99.196953,223.748184 98.389877,223.504501 97.292465,222.753952 
	C97.000801,221.498886 96.999489,220.750656 96.998169,220.002441 
	C103.856361,221.528320 110.714546,223.054199 117.786514,224.788483 
z"/>
<path fill="#FF6A00" opacity="1.000000" stroke="none" 
	d="
M78.075912,214.331665 
	C83.075043,215.993042 88.150383,217.985504 93.610504,220.327240 
	C93.993988,221.121429 93.992691,221.566330 93.991394,222.011246 
	C87.469093,222.239975 82.427727,219.276642 78.075912,214.331665 
z"/>
<path fill="#FF6500" opacity="1.000000" stroke="none" 
	d="
M167.377899,221.999786 
	C170.086731,220.341461 173.174072,218.683533 176.481171,217.289047 
	C175.800720,218.701904 174.900513,219.851318 174.000305,221.000732 
	C172.848953,221.175217 171.697617,221.349701 170.288452,221.759491 
	C169.272568,221.996597 168.514496,221.998398 167.377899,221.999786 
z"/>
<path fill="#FF7100" opacity="1.000000" stroke="none" 
	d="
M94.227242,222.239685 
	C93.992691,221.566330 93.993988,221.121429 93.993980,220.343140 
	C94.439499,220.006500 94.886322,220.003235 95.668259,219.998459 
	C96.003380,219.996948 96.500793,220.000000 96.749481,220.001221 
	C96.999489,220.750656 97.000801,221.498886 97.002274,222.621109 
	C96.155975,222.819458 95.309525,222.643799 94.227242,222.239685 
z"/>
<path fill="#FF6A00" opacity="1.000000" stroke="none" 
	d="
M74.159348,212.273773 
	C74.948418,212.443985 75.894760,212.890823 76.924774,213.664322 
	C76.111160,213.510773 75.213890,213.030579 74.159348,212.273773 
z"/>
<path fill="#FF5E00" opacity="1.000000" stroke="none" 
	d="
M174.375259,221.001022 
	C174.900513,219.851318 175.800720,218.701904 176.850647,217.276550 
	C177.000351,217.000610 177.000000,217.000000 177.376175,217.000580 
	C178.504425,217.003220 179.256500,217.005280 180.008575,217.007324 
	C179.105698,218.154419 178.202835,219.301544 177.149994,220.724335 
	C176.250076,221.000443 175.500137,221.000885 174.375259,221.001022 
z"/>
<path fill="#FF6500" opacity="1.000000" stroke="none" 
	d="
M180.256592,217.005371 
	C179.256500,217.005280 178.504425,217.003220 177.376480,217.000885 
	C178.108307,216.034271 179.216003,215.067932 180.664291,214.054581 
	C181.003372,214.755753 181.001862,215.503952 181.000488,216.626373 
	C181.000610,217.000610 180.504593,217.003433 180.256592,217.005371 
z"/>
<path fill="#FF6500" opacity="1.000000" stroke="none" 
	d="
M198.344604,200.948914 
	C199.968719,198.231110 201.932327,195.458862 203.951752,192.347275 
	C204.756592,192.006500 205.505585,192.005051 206.629333,192.005463 
	C204.230743,194.969696 201.457428,197.932083 198.344604,200.948914 
z"/>
<path fill="#FF6500" opacity="1.000000" stroke="none" 
	d="
M194.337036,204.947189 
	C195.109268,203.702942 196.218750,202.405884 197.665787,201.056976 
	C196.893661,202.301529 195.783981,203.597946 194.337036,204.947189 
z"/>
<path fill="#FF9C00" opacity="1.000000" stroke="none" 
	d="
M219.026382,118.980934 
	C219.662491,120.298668 220.921265,121.658585 220.835297,122.927406 
	C220.199020,132.318954 219.789948,141.771805 218.301544,151.043564 
	C217.307922,157.233093 214.940796,163.264862 212.681381,169.173355 
	C209.506485,177.475845 203.440826,183.861542 198.000336,190.743301 
	C190.390961,200.368576 180.501846,207.057648 170.102158,212.515244 
	C161.188065,217.193207 151.166031,220.154037 140.643982,220.123993 
	C134.853256,220.107468 129.022232,221.267776 123.276840,220.884995 
	C109.176949,219.945526 95.475739,217.366699 83.418266,209.117981 
	C79.819794,206.656235 75.653221,205.024872 71.364655,202.630035 
	C69.274811,199.700760 67.951500,196.752853 65.788002,194.683228 
	C59.170727,188.353012 51.428375,183.164597 48.423416,173.699997 
	C46.002670,166.075500 41.694077,158.901947 40.256290,151.151154 
	C38.433975,141.327438 38.243778,131.126801 38.131458,121.079964 
	C38.008110,110.047073 42.621239,99.887222 45.622726,89.496323 
	C47.189869,84.070992 50.478710,79.142982 52.989929,73.990349 
	C52.989925,73.990349 52.997932,73.996666 53.385567,73.999023 
	C61.035240,71.712044 64.941071,65.772774 69.277161,59.839386 
	C70.702164,58.450947 71.850014,57.223122 73.374298,55.997231 
	C74.503593,56.002193 75.256470,56.005219 75.993263,56.365932 
	C71.747673,61.553905 67.320686,66.227905 63.341244,71.256104 
	C58.891281,76.878815 53.561108,82.297394 50.925797,88.749107 
	C46.907486,98.586639 44.444477,109.142075 42.181953,119.579292 
	C41.052673,124.788773 41.149059,130.510239 41.913200,135.824402 
	C42.979168,143.237595 46.133068,150.419281 46.658405,157.823151 
	C47.244804,166.087570 51.623642,172.535675 55.804443,178.457123 
	C61.694328,186.799210 69.827034,193.557739 77.060623,201.341614 
	C78.416466,202.457092 79.712425,203.224335 81.388512,203.994171 
	C84.511734,205.333038 87.254829,206.669296 90.174866,208.295898 
	C91.568657,209.056595 92.785515,209.526962 94.255753,210.116180 
	C95.005653,210.492783 95.502190,210.750504 96.090881,211.344849 
	C98.454979,212.123367 100.726906,212.565277 103.331360,213.007782 
	C104.107246,213.009186 104.550606,213.010025 105.096527,213.361572 
	C106.629852,214.433975 107.989502,215.533859 109.502487,215.818359 
	C123.296127,218.412247 137.145172,219.120255 150.919968,215.853760 
	C154.073685,215.105896 156.980270,213.315826 160.312164,211.828415 
	C161.796219,211.091064 163.025986,210.625305 164.131943,209.955154 
	C171.769287,205.327286 179.380798,200.656799 187.315765,195.957001 
	C188.419479,195.273804 189.208069,194.633621 189.998322,193.996704 
	C190.000000,194.000000 189.993256,193.994675 190.341431,193.936005 
	C191.459335,192.584229 192.229065,191.291122 193.134338,189.742264 
	C193.845535,188.990509 194.421219,188.494522 195.354675,187.982941 
	C197.804489,185.971176 199.896545,183.975006 202.153595,181.687653 
	C203.543518,179.265228 204.768433,177.133987 206.212006,174.809738 
	C206.619125,174.075119 206.807571,173.533508 207.033997,172.704086 
	C207.379333,171.943405 207.686691,171.470520 208.335571,170.901581 
	C209.115631,169.533112 209.554184,168.260712 210.109924,166.735413 
	C210.484650,165.988327 210.742188,165.494156 211.128784,164.898682 
	C211.433334,164.469437 211.349136,164.203964 211.011047,163.652145 
	C211.345795,162.202332 211.674728,161.101334 212.346954,159.905151 
	C213.458450,157.536789 214.226654,155.263580 215.011215,152.589722 
	C215.352341,149.792709 215.677094,147.396347 216.376587,144.869614 
	C217.167572,142.725052 217.815796,140.726990 217.957291,138.693680 
	C218.414017,132.129745 218.684265,125.552841 219.026382,118.980934 
z"/>
<path fill="#FF8700" opacity="1.000000" stroke="none" 
	d="
M52.621639,74.002563 
	C50.478710,79.142982 47.189869,84.070992 45.622726,89.496323 
	C42.621239,99.887222 38.008110,110.047073 38.131458,121.079964 
	C38.243778,131.126801 38.433975,141.327438 40.256290,151.151154 
	C41.694077,158.901947 46.002670,166.075500 48.423416,173.699997 
	C51.428375,183.164597 59.170727,188.353012 65.788002,194.683228 
	C67.951500,196.752853 69.274811,199.700760 70.993515,202.615204 
	C71.003586,203.153610 71.002510,203.323837 71.000259,203.749481 
	C69.894913,203.701218 68.790741,203.397568 67.345505,203.044708 
	C64.746300,200.239594 62.862301,197.027725 60.161366,194.811417 
	C51.285042,187.527786 46.516079,177.661880 41.968533,167.559265 
	C41.111191,165.654663 39.786263,163.960556 38.344353,162.078491 
	C36.626125,152.810822 34.704216,143.673004 34.032585,134.444199 
	C33.535816,127.618149 34.021885,120.556564 35.245617,113.813240 
	C36.598881,106.356110 38.969711,99.028023 41.508831,91.860344 
	C43.342480,86.684143 46.052410,81.796402 48.647030,76.926796 
	C49.315674,75.671890 51.023109,74.970467 52.621639,74.002563 
z"/>
<path fill="#FF8D00" opacity="1.000000" stroke="none" 
	d="
M76.009338,56.008240 
	C75.256470,56.005219 74.503593,56.002193 73.374786,55.599304 
	C72.999023,54.137810 72.999207,53.076183 73.331131,52.008411 
	C74.105095,51.998638 74.547318,51.995014 75.361130,51.980663 
	C78.777527,50.517822 81.945045,49.270138 84.824257,47.542088 
	C86.760658,46.379902 88.289261,44.538269 90.000153,43.000305 
	C90.000000,43.000000 89.998482,42.997299 90.359161,42.997494 
	C91.811958,42.662548 92.904091,42.327408 94.198036,41.864166 
	C94.652863,41.533295 94.852097,41.287025 95.407097,40.998165 
	C98.255699,40.785587 101.320740,41.870502 102.004379,38.015900 
	C102.447853,38.012108 102.891319,38.008324 103.941872,38.242912 
	C105.666260,38.496506 106.858261,38.776806 107.889397,38.486233 
	C119.069748,35.335556 130.392990,35.413208 141.807053,36.686886 
	C143.162506,36.838135 144.600372,36.250931 146.000031,36.006027 
	C146.749878,36.007057 147.499710,36.008083 148.624481,36.013226 
	C152.880997,37.682129 156.819290,39.228683 160.624146,41.053467 
	C163.141876,42.260952 165.468185,43.867561 167.687286,45.764248 
	C166.996475,46.488266 166.498535,46.743523 165.677307,46.845074 
	C159.237885,44.792690 153.121765,42.894012 146.927216,40.665672 
	C146.258530,39.807323 145.663330,38.812782 145.078751,38.818985 
	C134.229752,38.934181 123.381386,39.146374 112.535843,39.445435 
	C112.008736,39.459972 111.508720,40.457230 110.705826,41.127178 
	C109.610794,41.498768 108.806038,41.740044 107.766121,41.778774 
	C106.019684,42.378628 104.508408,43.181030 102.744705,43.984024 
	C102.324005,43.986420 102.155731,43.988228 101.580231,43.990337 
	C91.950600,43.230854 85.893425,49.912800 78.608543,53.682465 
	C78.132019,53.929050 78.177826,55.185043 77.652031,55.976578 
	C76.885376,55.990513 76.447357,55.999378 76.009338,56.008240 
z"/>
<path fill="#FF9E00" opacity="1.000000" stroke="none" 
	d="
M219.024109,118.651825 
	C218.684265,125.552841 218.414017,132.129745 217.957291,138.693680 
	C217.815796,140.726990 217.167572,142.725052 216.138275,144.601501 
	C215.566437,136.160309 215.582581,127.856621 215.662659,119.553558 
	C215.690155,116.701385 215.877457,113.850739 216.248199,111.228439 
	C217.340286,113.306854 218.175949,115.156227 219.011627,117.005600 
	C219.015030,117.444649 219.018433,117.883682 219.024109,118.651825 
z"/>
<path fill="#FF9C00" opacity="1.000000" stroke="none" 
	d="
M219.256348,116.706573 
	C218.175949,115.156227 217.340286,113.306854 216.237350,110.862152 
	C215.644852,108.847809 215.319611,107.428795 215.035706,105.678375 
	C214.051575,102.897972 213.026093,100.448967 211.868073,97.709595 
	C211.493530,96.611656 211.251541,95.804085 211.232483,94.821716 
	C211.969574,94.098083 212.483734,93.549271 213.189514,93.217651 
	C213.917648,93.626511 214.454163,93.818169 214.990662,94.009827 
	C216.500671,99.694160 218.111282,105.354813 219.458481,111.077477 
	C219.855545,112.764046 219.507614,114.625984 219.256348,116.706573 
z"/>
<path fill="#FF9C00" opacity="1.000000" stroke="none" 
	d="
M166.000610,46.998779 
	C166.498535,46.743523 166.996475,46.488266 167.748154,46.114727 
	C169.468338,46.552082 170.934753,47.107716 172.869965,48.133209 
	C175.559311,49.735226 177.779892,50.867386 180.000458,51.999542 
	C180.801514,52.621696 181.602585,53.243851 182.589783,54.177361 
	C182.518707,54.988258 182.261490,55.487808 182.002655,56.240963 
	C182.000488,56.663540 181.999969,56.832516 181.624298,56.988510 
	C176.166092,54.317173 171.083054,51.658813 165.999756,48.666847 
	C165.999893,47.888424 166.000259,47.443600 166.000610,46.998779 
z"/>
<path fill="#FF8D00" opacity="1.000000" stroke="none" 
	d="
M214.979492,93.625725 
	C214.454163,93.818169 213.917648,93.626511 213.043793,92.901962 
	C209.469193,85.913963 206.231918,79.458855 202.997528,73.001663 
	C203.000381,72.999573 203.008545,72.991150 203.008545,72.991150 
	C210.001343,74.917366 209.753616,82.075935 212.842621,86.800301 
	C214.038254,88.628937 214.287766,91.076202 214.979492,93.625725 
z"/>
<path fill="#FF8D00" opacity="1.000000" stroke="none" 
	d="
M191.009766,60.990284 
	C195.548706,64.158508 200.695679,66.680351 202.992981,72.619621 
	C203.008545,72.991150 203.000381,72.999573 202.703278,72.837112 
	C200.935913,71.616188 199.245834,70.760788 198.041260,69.456894 
	C195.555511,66.766228 193.328674,63.836361 190.997955,61.002121 
	C191.000610,60.999344 191.009766,60.990284 191.009766,60.990284 
z"/>
<path fill="#FF8D00" opacity="1.000000" stroke="none" 
	d="
M182.004272,55.987354 
	C182.261490,55.487808 182.518707,54.988258 182.893143,54.232491 
	C187.894180,53.249603 189.531693,56.638008 190.995605,60.627365 
	C191.009766,60.990284 191.000610,60.999344 190.632202,60.988113 
	C187.510605,59.313705 184.757446,57.650528 182.004272,55.987354 
z"/>
<path fill="#FF7900" opacity="1.000000" stroke="none" 
	d="
M135.675522,225.734299 
	C131.419891,225.906967 126.838959,225.826813 122.128670,225.373932 
	C126.449615,225.161301 130.899918,225.321396 135.675522,225.734299 
z"/>
<path fill="#FF7900" opacity="1.000000" stroke="none" 
	d="
M156.736877,221.787415 
	C153.604660,222.996475 150.209320,223.995132 146.401672,224.989960 
	C149.484161,223.849762 152.978958,222.713379 156.736877,221.787415 
z"/>
<path fill="#FF8D00" opacity="1.000000" stroke="none" 
	d="
M179.914612,51.665909 
	C177.779892,50.867386 175.559311,49.735226 173.170166,48.300716 
	C175.277298,49.109669 177.553024,50.220970 179.914612,51.665909 
z"/>
<path fill="#FF7900" opacity="1.000000" stroke="none" 
	d="
M152.076309,35.327202 
	C153.894440,35.493206 155.794174,35.980900 157.846191,36.736061 
	C156.051620,36.551983 154.104752,36.100437 152.076309,35.327202 
z"/>
<path fill="#FF7900" opacity="1.000000" stroke="none" 
	d="
M141.810913,224.810364 
	C141.523468,225.301056 141.046524,225.609100 140.278931,225.951477 
	C140.532669,225.533096 141.077042,225.080399 141.810913,224.810364 
z"/>
<path fill="#FF8700" opacity="1.000000" stroke="none" 
	d="
M72.999390,52.014557 
	C72.999207,53.076183 72.999023,54.137810 72.998352,55.597366 
	C71.850014,57.223122 70.702164,58.450947 68.927994,59.891582 
	C66.790085,61.300529 65.348892,62.602715 63.748409,63.664913 
	C61.906216,64.887527 59.923218,65.898003 58.001373,67.000610 
	C60.964405,63.228390 63.927433,59.456165 66.945862,55.342442 
	C68.780281,53.702267 70.559296,52.403587 72.669876,51.303360 
	C73.000763,51.672729 73.000076,51.843643 72.999390,52.014557 
z"/>
<path fill="#FF8D00" opacity="1.000000" stroke="none" 
	d="
M57.995213,67.244568 
	C59.923218,65.898003 61.906216,64.887527 63.748409,63.664913 
	C65.348892,62.602715 66.790085,61.300529 68.650833,60.052197 
	C64.941071,65.772774 61.035240,71.712044 53.386604,74.000687 
	C52.995754,73.833237 52.991505,73.666473 53.296013,73.107224 
	C55.064941,71.135353 56.525120,69.555962 57.985298,67.976578 
	C57.985298,67.976578 57.989056,67.488525 57.995213,67.244568 
z"/>
<path fill="#FF8700" opacity="1.000000" stroke="none" 
	d="
M57.638729,68.039276 
	C56.525120,69.555962 55.064941,71.135353 53.297905,72.857010 
	C54.424747,71.366844 55.858452,69.734413 57.638729,68.039276 
z"/>
<path fill="#FF8300" opacity="1.000000" stroke="none" 
	d="
M145.698822,35.755222 
	C144.600372,36.250931 143.162506,36.838135 141.807053,36.686886 
	C130.392990,35.413208 119.069748,35.335556 107.889397,38.486233 
	C106.858261,38.776806 105.666260,38.496506 104.274475,38.239922 
	C109.575676,36.674904 115.115822,34.463058 120.735458,34.238209 
	C128.926178,33.910488 137.174088,35.012146 145.698822,35.755222 
z"/>
<path fill="#FF8300" opacity="1.000000" stroke="none" 
	d="
M101.797989,37.863045 
	C101.320740,41.870502 98.255699,40.785587 95.407501,40.665127 
	C94.998398,39.887032 94.998436,39.442886 94.998474,38.998741 
	C96.091331,38.666264 97.184189,38.333786 98.637085,37.998821 
	C99.861946,37.900951 100.726768,37.805569 101.797989,37.863045 
z"/>
<path fill="#FF8700" opacity="1.000000" stroke="none" 
	d="
M90.000305,43.000610 
	C88.289261,44.538269 86.760658,46.379902 84.824257,47.542088 
	C81.945045,49.270138 78.777527,50.517822 75.439545,51.654877 
	C76.433563,49.895325 77.720741,48.450836 79.007919,47.006344 
	C79.007919,47.006344 79.503815,47.004597 80.113571,46.990685 
	C82.483932,45.652580 84.244545,44.328396 86.005157,43.004211 
	C86.005157,43.004211 86.502129,43.001888 87.125763,43.000450 
	C88.499695,42.999546 89.250000,43.000076 90.000305,43.000610 
z"/>
<path fill="#FF7900" opacity="1.000000" stroke="none" 
	d="
M90.000153,43.000305 
	C89.250000,43.000076 88.499695,42.999546 87.374237,42.997818 
	C89.415863,41.672989 91.832642,40.349354 94.623947,39.012230 
	C94.998436,39.442886 94.998398,39.887032 94.997955,40.664215 
	C94.852097,41.287025 94.652863,41.533295 93.918350,41.741814 
	C92.290726,42.164146 91.144600,42.580723 89.998482,42.997299 
	C89.998482,42.997299 90.000000,43.000000 90.000153,43.000305 
z"/>
<path fill="#FF7900" opacity="1.000000" stroke="none" 
	d="
M85.604950,43.002560 
	C84.244545,44.328396 82.483932,45.652580 80.361504,46.988003 
	C80.306961,46.210796 80.614235,45.422356 80.962082,44.318405 
	C81.148239,43.712463 81.347565,43.465382 81.802765,43.133015 
	C83.071503,43.003212 84.138130,43.002060 85.604950,43.002560 
z"/>
<path fill="#FF7900" opacity="1.000000" stroke="none" 
	d="
M78.657494,47.056011 
	C77.720741,48.450836 76.433563,49.895325 75.067963,51.665600 
	C74.547318,51.995014 74.105095,51.998638 73.331131,52.008411 
	C73.000076,51.843643 73.000763,51.672729 73.001320,51.245300 
	C74.769814,49.694424 76.538445,48.400051 78.657494,47.056011 
z"/>
<path fill="#FEB000" opacity="1.000000" stroke="none" 
	d="
M166.000000,49.000458 
	C171.083054,51.658813 176.166092,54.317173 181.681793,57.325706 
	C182.697845,58.448471 183.202255,59.299210 183.877090,59.981346 
	C189.536163,65.701759 195.783646,70.951363 200.736542,77.224915 
	C204.932449,82.539635 207.642181,89.027687 211.009567,94.996521 
	C211.251541,95.804085 211.493530,96.611656 211.867279,98.116478 
	C212.997482,101.212418 213.995941,103.611099 214.994385,106.009781 
	C215.319611,107.428795 215.644852,108.847809 215.980927,110.633110 
	C215.877457,113.850739 215.690155,116.701385 215.662659,119.553558 
	C215.582581,127.856621 215.566437,136.160309 215.763519,144.731873 
	C215.677094,147.396347 215.352341,149.792709 214.661591,152.684433 
	C213.531616,155.453308 212.767639,157.726807 212.003662,160.000320 
	C211.674728,161.101334 211.345795,162.202332 211.009277,163.901886 
	C211.001694,164.500443 210.999741,165.000000 210.999741,165.000000 
	C210.742188,165.494156 210.484650,165.988327 209.820892,166.914917 
	C208.941132,168.564117 208.467590,169.780869 207.994049,170.997635 
	C207.686691,171.470520 207.379333,171.943405 206.765472,172.752838 
	C206.303757,173.727158 206.148544,174.364944 205.993332,175.002731 
	C204.768433,177.133987 203.543518,179.265228 201.791901,181.704529 
	C199.175781,184.007904 197.086349,186.003220 194.996902,187.998535 
	C194.421219,188.494522 193.845535,188.990509 192.847977,189.901062 
	C191.615158,191.541946 190.804199,192.768311 189.993256,193.994675 
	C189.993256,193.994675 190.000000,194.000000 189.655319,194.010925 
	C188.540634,194.681229 187.770615,195.340607 187.000610,196.000000 
	C179.380798,200.656799 171.769287,205.327286 164.131943,209.955154 
	C163.025986,210.625305 161.796219,211.091064 160.076401,211.601624 
	C158.589859,211.589111 157.638733,211.543350 156.713318,211.676453 
	C146.811584,213.100540 136.946426,215.321182 127.004311,215.742035 
	C119.719124,216.050430 112.334358,214.006424 104.993973,213.010880 
	C104.550606,213.010025 104.107246,213.009186 103.149246,212.712433 
	C100.422646,211.947083 98.210686,211.477661 95.998718,211.008240 
	C95.502190,210.750504 95.005653,210.492783 94.078896,209.825531 
	C92.431755,208.945847 91.214844,208.475693 89.997932,208.005539 
	C87.254829,206.669296 84.511734,205.333038 81.336922,203.669525 
	C79.603729,202.559280 78.302246,201.776321 77.000748,200.993362 
	C69.827034,193.557739 61.694328,186.799210 55.804443,178.457123 
	C51.623642,172.535675 47.244804,166.087570 46.658405,157.823151 
	C46.133068,150.419281 42.979168,143.237595 41.913200,135.824402 
	C41.149059,130.510239 41.052673,124.788773 42.181953,119.579292 
	C44.444477,109.142075 46.907486,98.586639 50.925797,88.749107 
	C53.561108,82.297394 58.891281,76.878815 63.341244,71.256104 
	C67.320686,66.227905 71.747673,61.553905 75.993263,56.365929 
	C76.447357,55.999378 76.885376,55.990513 78.028793,55.973846 
	C84.278526,53.219139 89.840256,50.506527 95.358765,47.708698 
	C97.616455,46.564068 99.780701,45.235123 101.987465,43.990028 
	C102.155731,43.988228 102.324005,43.986420 103.002678,44.226425 
	C104.672562,44.640553 105.832054,44.812866 107.419113,44.987766 
	C108.837700,44.931782 109.857361,45.004116 110.815338,44.794521 
	C121.107620,42.542641 131.472610,42.061413 141.841095,43.951935 
	C149.931915,45.427170 157.949738,47.302769 166.000000,49.000458 
M163.035019,53.435867 
	C159.630005,55.028542 160.549744,50.624557 158.663086,50.259232 
	C152.769699,49.118057 146.848312,48.121998 140.952316,46.993671 
	C137.926636,46.414642 134.947800,45.198257 131.920181,45.097286 
	C123.537170,44.817699 115.459259,45.916832 107.394890,48.986992 
	C99.252609,52.086811 91.250000,54.852329 83.785210,59.729061 
	C74.887146,65.542137 67.946259,72.606941 61.869236,81.256203 
	C57.172737,87.940605 53.446537,94.803284 51.007343,102.486656 
	C49.990818,105.688675 48.809113,108.855614 48.061378,112.120689 
	C47.329636,115.315933 47.112206,118.625565 46.560524,121.866516 
	C46.128380,124.405243 44.804035,127.019730 45.147339,129.418625 
	C46.049175,135.720398 47.531918,141.949402 48.989861,148.158875 
	C51.479435,158.762161 55.233635,168.860870 62.081371,177.505356 
	C66.620811,183.235901 70.714104,189.622147 76.274872,194.162003 
	C82.696075,199.404373 90.422188,203.102310 97.777992,207.110626 
	C99.785530,208.204559 102.523842,207.890808 104.882912,208.419006 
	C111.451355,209.889755 117.938293,212.343750 124.565407,212.784012 
	C133.834854,213.399811 143.072968,213.389755 152.145950,209.210342 
	C160.789856,205.228607 170.139862,203.633713 177.749298,196.571243 
	C182.990128,191.707169 189.442047,187.992661 193.412659,181.784409 
	C198.129517,174.409317 202.889786,166.997147 206.753433,159.167862 
	C208.762909,155.095886 208.497940,149.967636 209.925903,145.530716 
	C215.080444,129.514908 210.996658,114.067551 206.685059,98.884232 
	C204.910736,92.635971 201.082474,86.532593 196.819336,81.530090 
	C190.076523,73.617874 182.403595,66.440590 174.656982,59.471748 
	C171.811310,56.911797 167.637833,55.827843 164.674118,53.992420 
	C165.019684,53.825283 165.365234,53.658142 165.710800,53.491009 
	C165.037766,53.371239 164.364746,53.251465 163.035019,53.435867 
z"/>
<path fill="#FFA400" opacity="1.000000" stroke="none" 
	d="
M105.096527,213.361572 
	C112.334358,214.006424 119.719124,216.050430 127.004311,215.742035 
	C136.946426,215.321182 146.811584,213.100540 156.713318,211.676453 
	C157.638733,211.543350 158.589859,211.589111 159.764832,211.778625 
	C156.980270,213.315826 154.073685,215.105896 150.919968,215.853760 
	C137.145172,219.120255 123.296127,218.412247 109.502487,215.818359 
	C107.989502,215.533859 106.629852,214.433975 105.096527,213.361572 
z"/>
<path fill="#FF9E00" opacity="1.000000" stroke="none" 
	d="
M195.354675,187.982941 
	C197.086349,186.003220 199.175781,184.007904 201.626907,181.995712 
	C199.896545,183.975006 197.804489,185.971176 195.354675,187.982941 
z"/>
<path fill="#FFA400" opacity="1.000000" stroke="none" 
	d="
M96.090881,211.344849 
	C98.210686,211.477661 100.422646,211.947083 102.816727,212.711853 
	C100.726906,212.565277 98.454979,212.123367 96.090881,211.344849 
z"/>
<path fill="#FF9E00" opacity="1.000000" stroke="none" 
	d="
M212.346954,159.905151 
	C212.767639,157.726807 213.531616,155.453308 214.645218,153.085083 
	C214.226654,155.263580 213.458450,157.536789 212.346954,159.905151 
z"/>
<path fill="#FFA400" opacity="1.000000" stroke="none" 
	d="
M77.060623,201.341614 
	C78.302246,201.776321 79.603729,202.559280 80.956802,203.666901 
	C79.712425,203.224335 78.416466,202.457092 77.060623,201.341614 
z"/>
<path fill="#FF9E00" opacity="1.000000" stroke="none" 
	d="
M190.341431,193.936005 
	C190.804199,192.768311 191.615158,191.541946 192.712463,190.156799 
	C192.229065,191.291122 191.459335,192.584229 190.341431,193.936005 
z"/>
<path fill="#FF9E00" opacity="1.000000" stroke="none" 
	d="
M208.335571,170.901581 
	C208.467590,169.780869 208.941132,168.564117 209.703705,167.167847 
	C209.554184,168.260712 209.115631,169.533112 208.335571,170.901581 
z"/>
<path fill="#FFA400" opacity="1.000000" stroke="none" 
	d="
M90.174866,208.295898 
	C91.214844,208.475693 92.431755,208.945847 93.825523,209.706665 
	C92.785515,209.526962 91.568657,209.056595 90.174866,208.295898 
z"/>
<path fill="#FF9E00" opacity="1.000000" stroke="none" 
	d="
M187.315750,195.957001 
	C187.770615,195.340607 188.540634,194.681229 189.653656,194.007629 
	C189.208069,194.633621 188.419479,195.273804 187.315750,195.957001 
z"/>
<path fill="#FF9E00" opacity="1.000000" stroke="none" 
	d="
M206.212006,174.809738 
	C206.148544,174.364944 206.303757,173.727158 206.727509,173.040619 
	C206.807571,173.533508 206.619125,174.075119 206.212006,174.809738 
z"/>
<path fill="#FF9E00" opacity="1.000000" stroke="none" 
	d="
M211.128784,164.898682 
	C210.999741,165.000000 211.001694,164.500443 211.003464,164.250702 
	C211.349136,164.203964 211.433334,164.469437 211.128784,164.898682 
z"/>
<path fill="#FFA400" opacity="1.000000" stroke="none" 
	d="
M165.999756,48.666851 
	C157.949738,47.302769 149.931915,45.427170 141.841095,43.951935 
	C131.472610,42.061413 121.107620,42.542641 110.815338,44.794521 
	C109.857361,45.004116 108.837700,44.931782 107.461761,44.672340 
	C107.384979,43.563320 107.693130,42.772320 108.001274,41.981316 
	C108.806038,41.740044 109.610794,41.498768 111.168663,41.129120 
	C123.616386,40.998943 135.311005,40.997139 147.005630,40.995338 
	C153.121765,42.894012 159.237885,44.792690 165.677307,46.845074 
	C166.000259,47.443600 165.999893,47.888424 165.999756,48.666851 
z"/>
<path fill="#FF9C00" opacity="1.000000" stroke="none" 
	d="
M101.580231,43.990334 
	C99.780701,45.235123 97.616455,46.564068 95.358765,47.708698 
	C89.840256,50.506527 84.278526,53.219139 78.357437,55.968777 
	C78.177826,55.185043 78.132019,53.929050 78.608543,53.682465 
	C85.893425,49.912800 91.950600,43.230854 101.580231,43.990334 
z"/>
<path fill="#FF9C00" opacity="1.000000" stroke="none" 
	d="
M146.927216,40.665672 
	C135.311005,40.997139 123.616386,40.998943 111.458931,40.998802 
	C111.508720,40.457230 112.008736,39.459972 112.535843,39.445435 
	C123.381386,39.146374 134.229752,38.934181 145.078751,38.818985 
	C145.663330,38.812782 146.258530,39.807323 146.927216,40.665672 
z"/>
<path fill="#FF9C00" opacity="1.000000" stroke="none" 
	d="
M107.766121,41.778770 
	C107.693130,42.772320 107.384979,43.563320 107.034187,44.669754 
	C105.832054,44.812866 104.672562,44.640553 103.255096,44.225838 
	C104.508408,43.181030 106.019684,42.378628 107.766121,41.778770 
z"/>
<path fill="#FF8300" opacity="1.000000" stroke="none" 
	d="
M90.359161,42.997490 
	C91.144600,42.580723 92.290726,42.164146 93.716530,41.869919 
	C92.904091,42.327408 91.811958,42.662548 90.359161,42.997490 
z"/>
<path fill="#FF9E00" opacity="1.000000" stroke="none" 
	d="
M211.232483,94.821716 
	C207.642181,89.027687 204.932449,82.539635 200.736542,77.224915 
	C195.783646,70.951363 189.536163,65.701759 183.877090,59.981346 
	C183.202255,59.299210 182.697845,58.448471 182.056931,57.338684 
	C181.999969,56.832516 182.000488,56.663540 182.002655,56.240959 
	C184.757446,57.650528 187.510605,59.313705 190.629547,60.990891 
	C193.328674,63.836361 195.555511,66.766228 198.041260,69.456894 
	C199.245834,70.760788 200.935913,71.616188 202.700409,72.839203 
	C206.231918,79.458855 209.469193,85.913963 212.852173,92.684761 
	C212.483734,93.549271 211.969574,94.098083 211.232483,94.821716 
z"/>
<path fill="#FF9E00" opacity="1.000000" stroke="none" 
	d="
M215.035721,105.678375 
	C213.995941,103.611099 212.997482,101.212418 211.999817,98.406845 
	C213.026093,100.448967 214.051575,102.897972 215.035721,105.678375 
z"/>
<path fill="#000000" opacity="1.000000" stroke="none" 
	d="
M164.070038,54.070618 
	C167.637833,55.827843 171.811310,56.911797 174.656982,59.471748 
	C182.403595,66.440590 190.076523,73.617874 196.819336,81.530090 
	C201.082474,86.532593 204.910736,92.635971 206.685059,98.884232 
	C210.996658,114.067551 215.080444,129.514908 209.925903,145.530716 
	C208.497940,149.967636 208.762909,155.095886 206.753433,159.167862 
	C202.889786,166.997147 198.129517,174.409317 193.412659,181.784409 
	C189.442047,187.992661 182.990128,191.707169 177.749298,196.571243 
	C170.139862,203.633713 160.789856,205.228607 152.145950,209.210342 
	C143.072968,213.389755 133.834854,213.399811 124.565407,212.784012 
	C117.938293,212.343750 111.451355,209.889755 104.882912,208.419006 
	C102.523842,207.890808 99.785530,208.204559 97.777992,207.110626 
	C90.422188,203.102310 82.696075,199.404373 76.274872,194.162003 
	C70.714104,189.622147 66.620811,183.235901 62.081371,177.505356 
	C55.233635,168.860870 51.479435,158.762161 48.989861,148.158875 
	C47.531918,141.949402 46.049175,135.720398 45.147339,129.418625 
	C44.804035,127.019730 46.128380,124.405243 46.560524,121.866516 
	C47.112206,118.625565 47.329636,115.315933 48.061378,112.120689 
	C48.809113,108.855614 49.990818,105.688675 51.007343,102.486656 
	C53.446537,94.803284 57.172737,87.940605 61.869236,81.256203 
	C67.946259,72.606941 74.887146,65.542137 83.785210,59.729061 
	C91.250000,54.852329 99.252609,52.086811 107.394890,48.986992 
	C115.459259,45.916832 123.537170,44.817699 131.920181,45.097286 
	C134.947800,45.198257 137.926636,46.414642 140.952316,46.993671 
	C146.848312,48.121998 152.769699,49.118057 158.663086,50.259232 
	C160.549744,50.624557 159.630005,55.028542 163.437912,53.526585 
	C163.917221,53.768406 163.993637,53.919514 164.070038,54.070618 
M168.999557,134.500000 
	C168.999557,119.101318 168.999557,103.702629 168.999557,88.316727 
	C161.669342,88.316727 154.951385,88.316727 148.300293,88.316727 
	C148.300293,115.651115 148.300293,142.667618 148.300293,169.679321 
	C155.321030,169.679321 162.036942,169.679321 168.999557,169.679321 
	C168.999557,158.073929 168.999557,146.786957 168.999557,134.500000 
M88.401108,107.941803 
	C90.186401,111.815445 92.130165,115.625885 93.707985,119.582275 
	C95.024048,122.882309 96.785629,126.364670 96.742233,129.745651 
	C96.698837,133.127396 94.786720,136.533844 93.465752,139.838318 
	C91.767006,144.087830 89.729530,148.202240 88.040985,152.455429 
	C85.899590,157.849289 83.962090,163.324112 81.491951,169.958420 
	C83.752464,169.141144 86.258446,168.913010 87.761574,167.565903 
	C92.464104,163.351471 96.784897,158.711441 101.259537,154.242279 
	C109.588676,145.923340 117.921974,137.608551 126.488869,129.057129 
	C124.771317,126.956963 123.470352,125.073662 121.883720,123.473625 
	C111.688217,113.191963 101.494957,102.905998 91.138474,92.787758 
	C89.040146,90.737724 86.247681,89.398186 83.775230,87.731087 
	C83.312553,88.064713 82.849876,88.398338 82.387199,88.731964 
	C83.162727,90.995598 84.009468,93.237816 84.697838,95.527649 
	C85.861534,99.398628 86.925034,103.299721 88.401108,107.941803 
M170.997528,101.521973 
	C170.997528,97.568260 170.997528,93.614548 170.997528,89.660835 
	C170.748917,89.664032 170.500320,89.667236 170.251709,89.670433 
	C170.251709,116.213814 170.251709,142.757202 170.251709,169.300583 
	C170.500320,169.301804 170.748917,169.303040 170.997528,169.304276 
	C170.997528,147.041214 170.997528,124.778168 170.997528,101.521973 
M147.000000,113.500015 
	C147.000000,105.561188 147.000000,97.622360 147.000000,89.683533 
	C146.765350,89.686470 146.530701,89.689407 146.296051,89.692337 
	C146.296051,115.875290 146.296051,142.058243 146.296051,168.241180 
	C146.530701,168.242096 146.765350,168.242996 147.000000,168.243912 
	C147.000000,150.329269 147.000000,132.414642 147.000000,113.500015 
z"/>
<path fill="#000000" opacity="1.000000" stroke="none" 
	d="
M163.766266,53.374496 
	C164.364746,53.251465 165.037766,53.371239 165.710800,53.491005 
	C165.365234,53.658142 165.019684,53.825283 164.372070,54.031517 
	C163.993637,53.919514 163.917221,53.768406 163.766266,53.374496 
z"/>
<path fill="#FFA100" opacity="1.000000" stroke="none" 
	d="
M168.999557,135.000000 
	C168.999557,146.786957 168.999557,158.073929 168.999557,169.679321 
	C162.036942,169.679321 155.321030,169.679321 148.300293,169.679321 
	C148.300293,142.667618 148.300293,115.651115 148.300293,88.316727 
	C154.951385,88.316727 161.669342,88.316727 168.999557,88.316727 
	C168.999557,103.702629 168.999557,119.101318 168.999557,135.000000 
z"/>
<path fill="#FFA000" opacity="1.000000" stroke="none" 
	d="
M88.215881,107.564980 
	C86.925034,103.299721 85.861534,99.398628 84.697838,95.527649 
	C84.009468,93.237816 83.162727,90.995598 82.387199,88.731964 
	C82.849876,88.398338 83.312553,88.064713 83.775230,87.731087 
	C86.247681,89.398186 89.040146,90.737724 91.138474,92.787758 
	C101.494957,102.905998 111.688217,113.191963 121.883720,123.473625 
	C123.470352,125.073662 124.771317,126.956963 126.488869,129.057129 
	C117.921974,137.608551 109.588676,145.923340 101.259537,154.242279 
	C96.784897,158.711441 92.464104,163.351471 87.761574,167.565903 
	C86.258446,168.913010 83.752464,169.141144 81.491951,169.958420 
	C83.962090,163.324112 85.899590,157.849289 88.040985,152.455429 
	C89.729530,148.202240 91.767006,144.087830 93.465752,139.838318 
	C94.786720,136.533844 96.698837,133.127396 96.742233,129.745651 
	C96.785629,126.364670 95.024048,122.882309 93.707985,119.582275 
	C92.130165,115.625885 90.186401,111.815445 88.215881,107.564980 
z"/>
<path fill="#FF9C00" opacity="1.000000" stroke="none" 
	d="
M170.997528,102.018539 
	C170.997528,124.778168 170.997528,147.041214 170.997528,169.304276 
	C170.748917,169.303040 170.500320,169.301804 170.251709,169.300583 
	C170.251709,142.757202 170.251709,116.213814 170.251709,89.670433 
	C170.500320,89.667236 170.748917,89.664032 170.997528,89.660835 
	C170.997528,93.614548 170.997528,97.568260 170.997528,102.018539 
z"/>
<path fill="#FFFF00" opacity="1.000000" stroke="none" 
	d="
M147.000000,114.000008 
	C147.000000,132.414642 147.000000,150.329269 147.000000,168.243912 
	C146.765350,168.242996 146.530701,168.242096 146.296051,168.241180 
	C146.296051,142.058243 146.296051,115.875290 146.296051,89.692337 
	C146.530701,89.689407 146.765350,89.686470 147.000000,89.683533 
	C147.000000,97.622360 147.000000,105.561188 147.000000,114.000008 
z"/>
</svg>